# xmcd
#
# Track frame offsets: 
#        150
#        24412
#        43127
#        55305
#        78156
#        95667
#        116533
#        138071
#        156096
#        175970
#        201939
#        219330
#
# Disc length: 3229 seconds
#
# Revision: 3
# Processed by: cddbd v1.5PL3 Copyright (c) Steve Scherf et al.
# Submitted via: ExactAudioCopy v0.95a4
#
DISCID=9d0c9b0c
DTITLE=Кроссроудз - Salado
DYEAR=1999
DGENRE=Blues
TTITLE0=Hang On Thru The Nite
TTITLE1=The Song
TTITLE2=All For Today
TTITLE3=Rock'n'Roll's My Prayer
TTITLE4=Come Home
TTITLE5=Berlin Blues
TTITLE6=Southern Woman
TTITLE7=Poor Man's Blues
TTITLE8=Wild Wild World
TTITLE9=Blue Angel
TTITLE10=In The Morning
TTITLE11=Save Me
EXTD=
EXTT0=
EXTT1=
EXTT2=
EXTT3=
EXTT4=
EXTT5=
EXTT6=
EXTT7=
EXTT8=
EXTT9=
EXTT10=
EXTT11=
PLAYORDER=
